<?xml version="1.0" standalone="no"?>
<!DOCTYPE svg PUBLIC "-//W3C//DTD SVG 20010904//EN"
 "http://www.w3.org/TR/2001/REC-SVG-20010904/DTD/svg10.dtd">
<svg version="1.0" xmlns="http://www.w3.org/2000/svg"
 width="980.000000pt" height="980.000000pt" viewBox="0 0 980.000000 980.000000"
 preserveAspectRatio="xMidYMid meet">

<g transform="translate(0.000000,980.000000) scale(0.100000,-0.100000)"
fill="#000000" stroke="none">
<path d="M4560 9789 c-1035 -75 -1998 -463 -2800 -1128 -150 -123 -501 -475
-622 -621 -881 -1068 -1270 -2403 -1098 -3765 97 -760 384 -1513 817 -2142
277 -403 628 -778 1018 -1087 1477 -1170 3543 -1376 5230 -521 829 420 1522
1065 2001 1861 503 838 746 1840 684 2819 -70 1094 -491 2109 -1216 2935 -112
128 -386 398 -509 501 -762 642 -1665 1026 -2665 1134 -174 19 -664 27 -840
14z m630 -539 c1042 -76 1979 -495 2719 -1215 740 -720 1171 -1605 1303 -2675
18 -142 18 -778 0 -920 -55 -450 -165 -876 -318 -1238 -518 -1222 -1575 -2156
-2829 -2502 -1544 -425 -3157 14 -4270 1161 -663 683 -1065 1522 -1197 2494
-20 152 -23 209 -23 545 0 405 12 540 71 840 207 1042 767 1954 1602 2607 666
522 1488 839 2342 902 156 12 446 12 600 1z"/>
<path d="M4433 7953 c-59 -20 -137 -94 -168 -156 -16 -33 -29 -84 -35 -137 -7
-56 -10 -630 -8 -1675 l3 -1590 22 -55 c25 -60 86 -127 143 -155 90 -46 44
-45 1762 -45 1554 0 1629 1 1686 18 106 34 184 104 218 199 7 21 13 72 14 113
0 132 -64 230 -190 289 l-55 26 -1472 3 -1473 2 0 1423 c0 984 -3 1442 -11
1482 -6 33 -21 80 -34 106 -31 60 -112 133 -172 153 -58 20 -173 20 -230 -1z"/>
</g>
</svg>
