<?xml version="1.0" standalone="no"?>
<!DOCTYPE svg PUBLIC "-//W3C//DTD SVG 20010904//EN"
 "http://www.w3.org/TR/2001/REC-SVG-20010904/DTD/svg10.dtd">
<svg version="1.0" xmlns="http://www.w3.org/2000/svg"
 width="512.000000pt" height="512.000000pt" viewBox="0 0 512.000000 512.000000"
 preserveAspectRatio="xMidYMid meet">

<g transform="translate(0.000000,512.000000) scale(0.100000,-0.100000)"
fill="#000000" stroke="none">
<path d="M2388 5110 c-174 -29 -315 -138 -397 -305 -83 -169 -87 -394 -10
-547 11 -21 19 -41 19 -46 0 -5 -43 -20 -95 -35 -241 -68 -517 -204 -715 -351
-409 -304 -700 -740 -810 -1213 -11 -50 -14 -53 -53 -64 -167 -44 -290 -178
-319 -347 -23 -135 24 -274 127 -371 56 -53 133 -97 192 -109 38 -8 38 -8 60
-92 211 -804 857 -1406 1693 -1579 165 -34 279 -45 480 -45 320 0 580 47 853
155 667 265 1143 794 1320 1469 l22 84 39 8 c102 21 227 122 280 226 120 237
-16 531 -280 601 l-42 11 -21 88 c-208 832 -937 1467 -1836 1598 -156 22 -384
29 -530 14 l-128 -12 -19 23 c-58 72 -91 211 -76 319 17 120 104 241 207 288
143 67 331 9 396 -121 43 -86 32 -166 -34 -260 -45 -64 -45 -116 0 -158 23
-22 41 -29 70 -29 34 0 46 7 85 46 78 81 114 174 115 295 0 43 -7 102 -16 133
-20 68 -82 163 -138 211 -112 96 -285 141 -439 115z m-173 -1126 c125 -91 276
-138 435 -137 149 1 259 33 401 116 l46 27 81 -24 c688 -206 1215 -762 1362
-1436 11 -52 25 -108 32 -123 13 -35 55 -57 105 -57 68 0 116 -20 164 -69 140
-140 36 -361 -169 -361 -79 0 -102 -28 -128 -157 -136 -672 -654 -1232 -1339
-1449 -213 -67 -402 -95 -645 -95 -385 0 -722 86 -1039 267 -492 281 -838 748
-945 1277 -9 43 -21 87 -26 98 -16 29 -70 59 -106 59 -105 0 -202 73 -222 166
-31 142 71 264 220 264 83 0 106 29 137 172 123 571 509 1056 1049 1319 128
62 263 112 407 149 61 16 115 29 120 29 6 1 33 -15 60 -35z"/>
<path d="M1616 2339 c-22 -5 -68 -23 -103 -41 -102 -50 -232 -201 -233 -271 0
-34 31 -79 67 -93 54 -23 93 -5 148 67 75 96 132 131 217 130 78 0 155 -51
216 -144 49 -75 126 -86 176 -26 52 62 25 141 -87 251 -113 111 -264 159 -401
127z"/>
<path d="M3311 2334 c-78 -21 -145 -61 -208 -122 -111 -110 -139 -189 -88
-250 49 -58 126 -48 175 23 68 99 139 146 221 147 85 0 148 -42 242 -165 33
-44 80 -56 126 -33 32 17 61 62 61 93 -1 69 -131 221 -232 271 -108 53 -195
64 -297 36z"/>
<path d="M1764 1269 c-27 -14 -54 -60 -54 -94 0 -44 27 -82 94 -130 176 -125
425 -187 756 -187 331 0 580 62 756 187 103 74 122 139 59 202 -32 32 -40 35
-74 30 -24 -3 -60 -20 -92 -45 -73 -54 -121 -77 -226 -107 -124 -36 -266 -55
-426 -55 -263 0 -483 51 -618 143 -104 72 -127 79 -175 56z"/>
</g>
</svg>
