<?xml version="1.0" standalone="no"?>
<!DOCTYPE svg PUBLIC "-//W3C//DTD SVG 20010904//EN"
 "http://www.w3.org/TR/2001/REC-SVG-20010904/DTD/svg10.dtd">
<svg version="1.0" xmlns="http://www.w3.org/2000/svg"
 width="713.000000pt" height="605.000000pt" viewBox="0 0 713.000000 605.000000"
 preserveAspectRatio="xMidYMid meet">

<g transform="translate(0.000000,605.000000) scale(0.100000,-0.100000)"
fill="#000000" stroke="none">
<path d="M785 6040 c-261 -35 -456 -162 -554 -360 -62 -127 -102 -294 -108
-460 -7 -160 5 -262 51 -444 82 -322 297 -809 636 -1441 68 -126 155 -288 193
-360 254 -473 443 -981 515 -1387 l19 -107 -506 -3 c-490 -4 -508 -5 -581 -27
-166 -50 -302 -156 -369 -289 -98 -194 -107 -442 -25 -661 75 -200 250 -383
431 -451 140 -53 53 -51 2223 -47 1901 3 2019 4 2090 21 216 52 394 158 516
307 238 291 310 739 208 1299 -21 117 -88 390 -101 413 -3 4 -32 -16 -65 -45
-33 -29 -74 -64 -91 -78 l-30 -26 26 -109 c53 -221 69 -340 74 -552 4 -129 1
-232 -6 -285 -49 -342 -192 -570 -426 -679 -159 -74 -38 -69 -1851 -69 l-1626
0 61 65 c136 145 237 381 275 638 18 120 21 377 6 512 -47 419 -202 910 -449
1420 -43 88 -141 277 -218 420 -608 1127 -798 1634 -753 2016 13 115 48 248
86 326 57 118 172 207 309 238 79 19 258 21 330 5 116 -26 220 -108 274 -215
l30 -60 -352 -5 c-395 -6 -393 -5 -424 -78 -24 -58 -29 -196 -9 -285 42 -188
153 -317 326 -379 l65 -23 1498 -5 1499 -5 33 -115 c75 -260 204 -577 394
-965 112 -229 323 -631 340 -648 7 -7 181 108 181 119 0 3 -30 60 -67 127
-105 193 -324 636 -406 822 -86 195 -165 402 -211 555 l-33 105 426 5 426 5
72 43 c209 124 324 339 310 581 -16 290 -228 510 -589 608 -58 16 -208 18
-2038 19 -1086 1 -2002 -2 -2035 -6z m4030 -203 c169 -49 304 -148 367 -270
32 -60 33 -65 33 -187 0 -116 -2 -129 -28 -184 -36 -78 -87 -138 -150 -181
l-52 -35 -1748 0 -1748 0 21 30 c40 56 88 175 106 260 38 190 -12 398 -133
548 l-35 43 1654 -3 c1535 -3 1657 -5 1713 -21z m-3415 -495 c0 -34 -30 -132
-55 -183 -59 -116 -144 -174 -255 -173 -83 1 -142 27 -194 84 -55 61 -79 121
-84 213 l-5 77 297 0 c278 0 296 -1 296 -18z m-647 -4076 c44 -18 86 -62 111
-116 16 -34 21 -64 20 -125 0 -91 -17 -139 -83 -232 -56 -77 -53 -126 9 -158
24 -12 82 -15 336 -15 355 0 326 13 252 -117 -125 -220 -316 -310 -640 -302
-132 4 -136 5 -210 41 -126 63 -231 192 -289 355 -30 83 -37 265 -15 364 36
160 141 275 283 308 60 14 190 13 226 -3z m804 -138 c-5 -134 -14 -211 -32
-295 l-5 -23 -225 0 c-124 0 -225 2 -225 4 0 2 7 23 15 46 42 120 38 252 -11
359 -13 29 -24 55 -24 57 0 2 115 4 257 4 l256 0 -6 -152z"/>
<path d="M1250 4250 c-19 -5 -45 -20 -57 -35 -32 -36 -29 -78 6 -117 l29 -33
1194 -3 c656 -1 1207 0 1224 3 50 9 84 47 84 93 0 47 -30 80 -87 93 -48 11
-2345 10 -2393 -1z"/>
<path d="M6885 4039 c-215 -31 -428 -136 -553 -274 -58 -63 -58 -49 0 39 21
32 37 61 35 63 -7 6 -149 -48 -242 -92 -49 -24 -126 -67 -170 -96 -98 -65
-243 -209 -310 -307 -27 -40 -51 -69 -53 -64 -4 13 44 138 69 181 24 41 18 39
-91 -28 -267 -166 -536 -429 -646 -633 -28 -53 -34 -58 -34 -36 0 35 33 119
71 182 17 26 28 50 26 53 -11 10 -171 -124 -264 -220 -114 -118 -214 -262
-273 -393 -78 -169 -69 -157 -69 -94 0 30 8 78 18 107 l18 52 -30 -21 c-52
-37 -147 -162 -192 -253 -25 -49 -55 -130 -67 -180 -13 -49 -24 -92 -25 -94
-8 -12 -15 14 -22 76 l-7 68 -37 -75 c-42 -88 -75 -207 -85 -313 l-7 -76 -176
-188 c-395 -420 -531 -613 -435 -613 35 0 83 43 227 200 74 80 219 231 324
336 l190 191 130 6 c170 7 294 43 404 116 74 50 75 61 9 55 -29 -3 -80 -1
-113 3 l-60 9 91 17 c211 39 359 97 514 202 103 70 178 132 145 120 -49 -17
-155 -35 -214 -35 -35 0 -62 2 -60 5 3 2 45 16 95 30 171 50 390 172 579 324
95 76 259 230 253 237 -3 2 -29 0 -58 -6 -62 -12 -170 -13 -170 -2 0 4 37 17
83 30 115 31 266 110 389 202 102 76 358 314 348 323 -3 3 -34 -1 -70 -9 -36
-7 -92 -13 -125 -13 l-60 0 80 28 c144 50 267 127 396 248 62 59 169 188 169
205 0 3 -21 -2 -47 -12 -27 -9 -70 -20 -98 -24 l-50 -6 80 46 c146 83 260 181
370 319 31 38 43 61 35 63 -20 7 -117 -17 -200 -49 -41 -16 -77 -29 -79 -29
-3 0 27 23 67 51 40 28 72 52 72 55 0 5 -20 4 -95 -7z"/>
<path d="M1534 3556 c-19 -19 -34 -41 -34 -49 0 -33 21 -68 52 -87 33 -20 51
-20 1234 -20 l1201 0 33 23 c42 28 56 67 40 108 -26 62 47 59 -1281 59 l-1211
0 -34 -34z"/>
<path d="M1894 2920 c-46 -18 -68 -85 -44 -131 28 -51 -22 -49 1265 -49 1281
0 1248 -1 1274 48 14 26 14 68 1 93 -28 51 23 49 -1272 48 -662 0 -1213 -4
-1224 -9z"/>
<path d="M2111 2256 c-65 -36 -65 -121 -1 -159 26 -16 105 -17 909 -17 l880 0
12 23 c7 12 33 49 58 82 26 33 50 66 55 73 11 18 -1879 17 -1913 -2z"/>
<path d="M2345 1601 c-30 -13 -54 -44 -61 -79 -6 -27 -1 -37 29 -67 l35 -35
607 2 607 3 86 93 85 92 -684 -1 c-376 0 -693 -4 -704 -8z"/>
<path d="M2278 934 c-53 -28 -64 -94 -24 -141 l24 -28 378 -3 c272 -2 386 1
406 9 81 33 75 138 -9 170 -13 5 -184 9 -386 9 -300 -1 -367 -3 -389 -16z"/>
</g>
</svg>
